<svg width="132" height="70" viewBox="0 0 132 70" fill="none" xmlns="http://www.w3.org/2000/svg">
<g clip-path="url(#clip0_4155_1135)">
<path fill-rule="evenodd" clip-rule="evenodd" d="M2.46845 20.9937C5.44156 13.87 10.6577 7.97603 17.2001 4.25955C18.127 3.73317 18.0652 3.70839 18.4795 4.4472L19.0231 5.62033C19.5026 6.65537 19.4454 6.55387 18.3021 7.22541C12.5619 10.5937 7.97866 15.8185 5.32255 22.1079C4.83504 23.2621 4.98266 23.2491 3.90122 22.8231L2.72594 22.3592C1.99811 22.0725 2.04046 22.0217 2.4696 20.9937H2.46845Z" fill="#00151E"/>
<path fill-rule="evenodd" clip-rule="evenodd" d="M0.102878 29.5899C0.346631 27.8939 0.708256 26.2381 1.18089 24.6318C1.49559 23.5614 1.34911 23.6888 2.31154 23.9544L3.46393 24.4087C4.39317 24.7758 4.33595 24.6944 4.02125 25.8002C3.64932 27.1079 3.35636 28.4498 3.14923 29.8224C2.95697 31.0958 3.03937 31.1336 2.03116 31.0344L0.869614 30.92C-0.144309 30.8208 -0.0790794 30.848 0.101733 29.5899H0.102878Z" fill="#2AADE1"/>
<path fill-rule="evenodd" clip-rule="evenodd" d="M10.2439 59.9281C4.90535 54.7009 1.22387 47.6893 0.101231 39.8197C-0.0395281 38.8342 -0.139089 38.8885 0.740941 38.7964L2.14052 38.6489C3.01369 38.5568 2.98851 38.5356 3.15559 39.6367C4.22902 46.7227 7.58435 53.0286 12.4228 57.7305C13.2445 58.5295 13.185 58.4953 12.5487 59.2152L11.8266 60.0331C11.0198 60.9466 11.1789 60.8439 10.245 59.9304L10.2439 59.9281Z" fill="#00151E"/>
<path fill-rule="evenodd" clip-rule="evenodd" d="M17.2096 65.1823C15.7516 64.3538 14.3589 63.4179 13.0417 62.384C12.3128 61.8116 12.3196 61.9072 12.893 61.2581L13.8108 60.2195C14.5317 59.476 14.328 59.4571 15.1131 60.0613C16.2803 60.9607 17.5128 61.7762 18.8003 62.4997C19.694 63.0012 19.6586 62.8986 19.1711 63.7696L18.5359 64.9049C18.0141 65.8373 18.1537 65.7193 17.2084 65.1823H17.2096Z" fill="#2AADE1"/>
<path fill-rule="evenodd" clip-rule="evenodd" d="M48.7404 65.6885C44.1479 68.1079 38.9467 69.4722 33.4365 69.4722C31.0963 69.4722 28.8121 69.2255 26.6068 68.757C25.5346 68.5292 25.6273 68.6047 25.879 67.5886L26.1239 66.5984C26.4867 65.1998 26.3745 65.5197 27.7318 65.7829C29.5799 66.1417 31.4865 66.3305 33.4365 66.3305C38.1891 66.3305 42.6889 65.214 46.7022 63.223C47.9038 62.627 47.8077 62.3957 48.4245 63.4909L48.9784 64.4752C49.4304 65.2777 49.5849 65.2435 48.7404 65.6885Z" fill="#00151E"/>
<path fill-rule="evenodd" clip-rule="evenodd" d="M7.59841 23.0967C10.0623 17.2818 14.3171 12.4583 19.6453 9.36966C20.5185 8.86335 20.4784 8.90111 20.8458 9.55731L21.3722 10.6939C21.8975 11.8269 21.8952 11.6227 20.8481 12.247C16.2179 15.0111 12.5215 19.2527 10.3655 24.3465C9.9627 25.2978 10.068 25.2565 9.17308 24.9036L7.94745 24.4197C7.11319 24.0904 7.1624 24.127 7.59955 23.0955L7.59841 23.0967Z" fill="#00151E"/>
<path fill-rule="evenodd" clip-rule="evenodd" d="M5.5698 30.3462C5.75633 29.0668 6.02526 27.8146 6.36857 26.5967C6.64666 25.6076 6.58029 25.7339 7.39165 25.9582L8.67107 26.4633C9.52822 26.802 9.48702 26.6793 9.23068 27.6081C8.95374 28.6101 8.73401 29.6381 8.57609 30.6861C8.4319 31.6385 8.49942 31.6692 7.74298 31.5949L6.10766 31.4343C5.33749 31.3588 5.42789 31.3293 5.57094 30.3474L5.5698 30.3462Z" fill="#2AADE1"/>
<path fill-rule="evenodd" clip-rule="evenodd" d="M6.49681 43.2795C6.08827 41.9092 5.77471 40.4965 5.56528 39.0484C5.44627 38.2282 5.40507 38.3037 6.14777 38.2246L7.59885 38.0712C8.52466 37.9732 8.44112 37.8576 8.57844 38.7663C8.74552 39.8675 8.98127 40.9462 9.27881 41.9978C9.53744 42.9089 9.55575 42.8971 8.90116 43.198L7.60228 43.7976C6.74743 44.1918 6.79778 44.2862 6.49796 43.2783L6.49681 43.2795Z" fill="#2AADE1"/>
<path fill-rule="evenodd" clip-rule="evenodd" d="M13.8113 55.5777C12.9599 54.7255 12.1611 53.8191 11.4196 52.8632C10.8119 52.0795 10.7764 52.1822 11.5043 51.6487L12.6864 50.7825C13.3936 50.2644 13.262 50.2632 13.7827 50.9489C14.419 51.7856 15.1262 52.5728 15.8758 53.3152C16.5613 53.9926 16.6208 53.9159 16.06 54.5509L15.0896 55.6508C14.4385 56.3873 14.5609 56.3283 13.8113 55.5777Z" fill="#2AADE1"/>
<path fill-rule="evenodd" clip-rule="evenodd" d="M31.3932 63.7113C30.2797 63.6287 29.1834 63.48 28.1099 63.2676C26.9839 63.0457 27.0365 63.1661 27.2379 62.1122L27.4634 60.9331C27.6522 59.9429 27.5641 59.9854 28.5894 60.1919C29.5908 60.3938 30.6127 60.5342 31.653 60.6097C32.7504 60.6888 32.7539 60.5956 32.6188 61.5881L32.454 62.8002C32.3064 63.886 32.4563 63.7904 31.3932 63.7125V63.7113Z" fill="#2AADE1"/>
<path fill-rule="evenodd" clip-rule="evenodd" d="M45.6721 60.9118C44.7039 61.3933 43.7049 61.8205 42.6795 62.1876C41.7308 62.5275 41.7823 62.6821 41.4482 61.804L40.9057 60.4975C40.496 59.5109 40.4869 59.6608 41.4596 59.3244C42.4632 58.9762 43.4394 58.5643 44.3812 58.0946C45.3116 57.6308 45.1869 57.488 45.6412 58.4676L46.1264 59.5132C46.646 60.6344 46.6929 60.4031 45.6721 60.9106V60.9118Z" fill="#2AADE1"/>
<path fill-rule="evenodd" clip-rule="evenodd" d="M12.8823 25.2329C14.8174 20.8083 18.0755 17.0977 22.1128 14.6665C22.9906 14.1378 22.9563 14.1141 23.311 14.8801L23.7894 15.9128C24.2654 16.9407 24.1807 16.8286 23.0776 17.5368C19.8676 19.5998 17.2767 22.5928 15.662 26.1499C15.171 27.231 15.3049 27.3667 14.3986 27.0091L13.1592 26.5205C12.3844 26.2148 12.4497 26.2196 12.8823 25.2317V25.2329Z" fill="#00151E"/>
<path fill-rule="evenodd" clip-rule="evenodd" d="M11.2324 30.9536C11.356 30.1652 11.5185 29.3898 11.7165 28.6298C11.9602 27.6974 11.8389 27.8095 12.6663 28.0385L13.9938 28.5625C14.78 28.8729 14.6518 28.8021 14.4287 29.7037C14.2936 30.249 14.1803 30.8025 14.0899 31.3643C13.9423 32.2766 14.0224 32.2129 13.171 32.1291L11.7703 31.991C11.0344 31.919 11.0825 31.9096 11.2324 30.9536Z" fill="#2AADE1"/>
<path fill-rule="evenodd" clip-rule="evenodd" d="M11.8578 41.3201C11.5912 40.4196 11.3726 39.4943 11.2307 38.5643C11.0842 37.6036 11.0556 37.7063 11.9139 37.6154L13.0972 37.4903C14.023 37.3924 13.9406 37.2201 14.1237 38.2811C14.2221 38.8499 14.3434 39.4105 14.4865 39.9629C14.7245 40.8811 14.8149 40.8539 14.0997 41.1667L12.7344 41.7651C12.0901 42.0471 12.0947 42.1297 11.8555 41.3213L11.8578 41.3201Z" fill="#2AADE1"/>
<path fill-rule="evenodd" clip-rule="evenodd" d="M21.7571 54.5527C17.936 52.1533 14.8611 48.6138 12.9808 44.3899C12.5963 43.526 12.562 43.6216 13.3402 43.2805L14.6024 42.7281C15.3406 42.4048 15.2616 42.3941 15.6324 43.2179C17.3055 46.9403 20.044 50.0502 23.4451 52.1297C24.3892 52.7068 24.451 52.6867 24.0207 53.4562L23.5286 54.3544C22.9278 55.4272 23.0011 55.334 21.7571 54.5527Z" fill="#00151E"/>
<path fill-rule="evenodd" clip-rule="evenodd" d="M37.3004 57.5786C36.5497 57.7132 35.7875 57.8087 35.0139 57.8642C34.3112 57.915 34.4325 57.8595 34.4131 57.1667L34.3685 55.6525C34.3467 54.9102 34.2643 54.9456 35.0013 54.8854C35.6547 54.8323 36.299 54.7461 36.933 54.6281C37.6906 54.4876 37.6151 54.4629 37.7146 55.2253L37.9035 56.6663C38.0133 57.5078 38.1209 57.4334 37.3004 57.5798V57.5786Z" fill="#2AADE1"/>
<path fill-rule="evenodd" clip-rule="evenodd" d="M47.7384 52.6304C47.1868 53.1001 46.6123 53.5427 46.0172 53.9569C45.2665 54.4798 45.3718 54.3523 44.8419 53.6749L44.1507 52.7897C43.6197 52.1099 43.519 52.1052 44.3441 51.5351C44.8305 51.1988 45.302 50.84 45.7563 50.4623C46.5162 49.8286 46.3765 49.8203 47.0334 50.4977L47.8814 51.4502C48.4559 52.0957 48.4708 52.0084 47.7384 52.6316V52.6304Z" fill="#2AADE1"/>
<path fill-rule="evenodd" clip-rule="evenodd" d="M23.5063 20.8595C23.9492 20.5208 24.4092 20.2045 24.8841 19.9118C25.5032 19.5306 25.4025 19.4999 25.7253 20.0924L26.4107 21.5723C26.6728 22.1388 26.7266 22.0432 26.2517 22.3371C25.9496 22.5248 25.6543 22.723 25.3671 22.9319C24.8944 23.2766 24.9745 23.2943 24.5923 22.9001L23.48 21.6998C23.0131 21.2183 22.9604 21.2749 23.5063 20.8571V20.8595Z" fill="#2AADE1"/>
<path fill-rule="evenodd" clip-rule="evenodd" d="M18.1716 27.6998C18.3753 27.2301 18.5985 26.7722 18.8399 26.3261C19.2222 25.6191 19.1478 25.6451 19.7383 26.0723L21.0784 27.0413C21.456 27.3139 21.4583 27.2454 21.2306 27.6621C21.0074 28.0704 20.8037 28.4917 20.6195 28.9237C20.4192 29.3946 20.4615 29.358 20.0164 29.1822L18.5092 28.5873C17.8752 28.3371 17.8615 28.4138 18.1705 27.6998H18.1716Z" fill="#2AADE1"/>
<path fill-rule="evenodd" clip-rule="evenodd" d="M21.2975 46.5601C19.1541 44.2233 17.6367 41.2669 17.0267 37.98C16.8505 37.0311 16.8699 37.0925 17.6332 37.0122L18.8097 36.8883C19.6748 36.7974 19.5581 36.7691 19.7446 37.6909C20.2562 40.2094 21.404 42.486 23.0061 44.3343C23.782 45.2289 23.9033 45.2914 23.3025 45.911L22.5781 46.7301C21.9601 47.3674 22.038 47.3686 21.2975 46.5601Z" fill="#00151E"/>
<path fill-rule="evenodd" clip-rule="evenodd" d="M24.9868 49.5906C24.5394 49.3192 24.1045 49.0265 23.6834 48.7149C23.205 48.3597 23.2428 48.4128 23.6147 47.9926L24.5932 46.8856C25.1688 46.2919 24.9765 46.2329 25.5968 46.672C25.8749 46.8691 26.1323 47.0367 26.4036 47.1983C26.9906 47.5489 26.9506 47.4922 26.6153 48.0906L25.8932 49.3794C25.5533 49.986 25.6311 49.9825 24.9857 49.5906H24.9868Z" fill="#2AADE1"/>
<path fill-rule="evenodd" clip-rule="evenodd" d="M40.2797 50.4463C38.1912 51.4141 35.8761 51.9535 33.4374 51.9535C32.5745 51.9535 31.7277 51.8862 30.9003 51.7564C29.923 51.6029 30.026 51.5687 30.1633 50.7603L30.3499 49.6556C30.4929 48.8106 30.478 48.8625 31.453 49.0053C32.1008 49.0997 32.7634 49.1493 33.4363 49.1493C35.313 49.1493 37.1029 48.7681 38.737 48.0765C39.6857 47.6752 39.5736 47.6245 40.0657 48.4978L40.56 49.3759C41.0189 50.195 41.0899 50.071 40.2774 50.4475L40.2797 50.4463Z" fill="#00151E"/>
<path fill-rule="evenodd" clip-rule="evenodd" d="M43.9334 48.1291C43.6301 48.3817 43.3177 48.6248 42.9973 48.8549C42.242 49.399 42.3369 49.4014 41.9124 48.6484L41.236 47.4481C40.9213 46.8863 40.8481 46.9737 41.315 46.6456C41.6389 46.4178 41.9524 46.1759 42.2557 45.9221C42.702 45.548 42.6391 45.5598 43.011 45.9776L43.9196 46.9985C44.5536 47.7113 44.6154 47.5614 43.9334 48.1303V48.1291Z" fill="#2AADE1"/>
<path fill-rule="evenodd" clip-rule="evenodd" d="M56.1277 56.0168C57.4426 56.0168 58.5081 57.1156 58.5081 58.4716C58.5081 59.8277 57.4426 60.9265 56.1277 60.9265C55.9572 60.9265 55.7901 60.9076 55.6299 60.8722C54.4203 61.9639 53.1352 62.9694 51.7825 63.8758C50.7823 64.5462 50.8968 64.6158 50.3486 63.6421L49.7444 62.5693C49.3301 61.8293 49.2603 61.8199 50.1415 61.2274C51.4117 60.3741 52.6179 59.4264 53.7486 58.3926C53.7886 57.0731 54.838 56.0156 56.1277 56.0156V56.0168Z" fill="#2AADE1"/>
<path fill-rule="evenodd" clip-rule="evenodd" d="M26.2231 0.766825C26.2483 0.760924 26.2735 0.755023 26.2987 0.750302C27.8859 0.397419 29.5144 0.157837 31.176 0.0433564C31.9691 -0.0109332 31.9988 -0.0522406 31.9908 0.601596L32.0332 2.21494C32.0538 3.1178 32.119 3.11898 31.0787 3.2016C29.6425 3.3149 28.2327 3.53088 26.8583 3.84127C26.1064 4.01122 26.1911 3.84953 26.0343 3.21104L25.6635 1.69565C25.4736 0.96274 25.4873 0.933234 26.2208 0.768005L26.2231 0.766825Z" fill="#2AADE1"/>
<path fill-rule="evenodd" clip-rule="evenodd" d="M27.405 6.32375C28.7451 6.02162 30.1206 5.81862 31.5248 5.72066C32.1965 5.67464 32.1267 5.74427 32.1416 6.30369L32.1908 8.16134C32.1908 8.69715 32.3201 8.78921 31.7525 8.82698C30.5349 8.90959 29.3402 9.08308 28.1752 9.33801C27.5263 9.47963 27.5916 9.53392 27.4302 8.91195L26.9747 7.0484C26.8637 6.59638 26.7584 6.4701 27.405 6.32493V6.32375Z" fill="#2AADE1"/>
<path fill-rule="evenodd" clip-rule="evenodd" d="M28.7557 12.0222C29.7456 11.8063 30.7595 11.6564 31.7929 11.5797C32.3319 11.5395 32.2678 11.5136 32.2941 12.0341L32.3434 13.8764C32.3628 14.5868 32.3823 14.503 31.8661 14.555C31.0525 14.6364 30.2503 14.7403 29.4652 14.9067C28.8839 15.0294 28.9537 15.0696 28.8003 14.5137L28.3643 12.7292C28.2293 12.1816 28.1377 12.1556 28.7546 12.0211L28.7557 12.0222Z" fill="#2AADE1"/>
<path fill-rule="evenodd" clip-rule="evenodd" d="M30.17 17.8155C30.7548 17.6963 31.3499 17.6078 31.9541 17.5523C32.4794 17.5051 32.4393 17.5122 32.4519 17.9713L32.5023 19.8679C32.5137 20.3093 32.5561 20.3105 32.0674 20.36C31.6234 20.4049 31.1851 20.471 30.7537 20.5583C30.2822 20.6527 30.3234 20.7058 30.2067 20.2562L29.7947 18.5709C29.631 17.9005 29.6207 17.9324 30.0888 17.8332C30.1151 17.8273 30.1426 17.8226 30.1712 17.8167L30.17 17.8155Z" fill="#2AADE1"/>
<path fill-rule="evenodd" clip-rule="evenodd" d="M34.8797 17.551C38.2774 17.8507 41.3844 19.1985 43.8952 21.2792C44.6642 21.9166 44.433 22.0558 44.0142 22.4701L43.1902 23.3104C42.7737 23.7341 42.713 23.884 42.0378 23.3399C40.0157 21.7124 37.5484 20.6443 34.8568 20.3646C34.026 20.2784 34.1073 20.1545 34.1187 19.5007L34.1405 18.291C34.1508 17.6985 34.0455 17.4766 34.8786 17.551H34.8797Z" fill="#00151E"/>
<path fill-rule="evenodd" clip-rule="evenodd" d="M34.9727 11.5705C39.9897 11.9198 44.5546 13.9652 48.1354 17.1541C48.7808 17.7288 48.5142 17.8882 48.1892 18.2163L47.181 19.2442C46.8628 19.5676 46.6957 19.7836 46.016 19.197C43.0188 16.6112 39.2618 14.9317 35.1409 14.5659C34.1773 14.4809 34.214 14.3853 34.2265 13.6654L34.2517 12.2987C34.2517 11.8408 34.1144 11.5103 34.9738 11.5693L34.9727 11.5705Z" fill="#00151E"/>
<path fill-rule="evenodd" clip-rule="evenodd" d="M34.9533 5.69575C34.9911 5.69811 35.03 5.70047 35.0678 5.70165C41.5988 6.08522 47.5335 8.7643 52.1282 12.9658C52.8114 13.5914 52.6066 13.7153 52.2278 14.1012L51.1406 15.2094C50.8053 15.5552 50.676 15.7924 50.0569 15.2307C45.9749 11.5248 40.7176 9.16203 34.9362 8.81268C34.903 8.81032 34.8687 8.80796 34.8355 8.80678C34.3457 8.79026 34.3182 8.68168 34.3262 8.24146L34.364 6.16075C34.3903 5.83856 34.3857 5.65208 34.9533 5.69575Z" fill="#00151E"/>
<path fill-rule="evenodd" clip-rule="evenodd" d="M34.9244 0.00138032C43.1834 0.370786 50.6699 3.80756 56.3426 9.23298C56.7226 9.59649 56.5097 9.73811 56.3552 9.89508L54.7634 11.5179C54.6318 11.656 54.4807 11.7468 54.2461 11.5108C54.2026 11.4659 54.1557 11.4246 54.1099 11.3821C49.0186 6.58223 42.3514 3.53021 35.001 3.149C34.3728 3.11713 34.4208 3.00855 34.4289 2.56244L34.4678 0.465203C34.4723 0.233882 34.4163 -0.0210437 34.9244 0.00138032Z" fill="#00151E"/>
<path d="M33.437 43.266C38.0142 43.266 41.7247 39.4394 41.7247 34.719C41.7247 29.9985 38.0142 26.1719 33.437 26.1719C28.8599 26.1719 25.1494 29.9985 25.1494 34.719C25.1494 39.4394 28.8599 43.266 33.437 43.266Z" fill="#00151E"/>
<path d="M63.4415 31.3021H62.0659C61.9114 31.3021 61.7856 31.2608 61.6871 31.1817C61.5876 31.1026 61.5155 31.0046 61.4709 30.8866L60.7568 28.8744H56.796L56.082 30.8866C56.0465 30.9917 55.9778 31.0861 55.8748 31.1734C55.7707 31.2596 55.6437 31.3032 55.4937 31.3032H54.1113L57.8672 21.4414H59.6856L63.4415 31.3032V31.3021ZM57.2515 27.5856H60.3002L59.1363 24.3058C59.0837 24.1606 59.0265 23.9871 58.9624 23.79C58.8983 23.5917 58.8342 23.3781 58.7724 23.1468C58.7106 23.3781 58.6511 23.5941 58.5916 23.7947C58.5321 23.9942 58.4726 24.1701 58.4154 24.3199L57.2515 27.5868V27.5856Z" fill="#00151E"/>
<path d="M69.8066 23.2401C69.7586 23.3404 69.7025 23.4112 69.6396 23.4513C69.5755 23.4926 69.4988 23.5127 69.4107 23.5127C69.3226 23.5127 69.223 23.4761 69.1131 23.4053C69.0033 23.3345 68.8728 23.2578 68.7229 23.1716C68.573 23.0855 68.3991 23.0052 68.1988 22.9356C67.9985 22.8648 67.7605 22.8305 67.487 22.8305C67.2398 22.8305 67.0258 22.86 66.8438 22.9214C66.6607 22.9828 66.5062 23.0689 66.3804 23.1787C66.2545 23.2873 66.1595 23.4171 66.0977 23.5693C66.0359 23.7216 66.005 23.8904 66.005 24.0721C66.005 24.3023 66.0691 24.4946 66.195 24.6492C66.3208 24.8038 66.4856 24.936 66.6928 25.0446C66.8999 25.1532 67.1357 25.2511 67.4 25.3373C67.6644 25.4235 67.9356 25.5167 68.2114 25.6146C68.4872 25.7102 68.7561 25.8235 69.0204 25.9534C69.2848 26.0832 69.5206 26.2472 69.7277 26.4443C69.9348 26.6426 70.1019 26.8857 70.2278 27.169C70.3537 27.4558 70.4155 27.8028 70.4155 28.2123C70.4155 28.6584 70.3422 29.0738 70.1946 29.4621C70.047 29.8504 69.8307 30.1891 69.5469 30.4783C69.2631 30.7674 68.914 30.994 68.5043 31.1605C68.0946 31.3269 67.6243 31.4083 67.0956 31.4083C66.7912 31.4083 66.4914 31.3764 66.1961 31.3151C65.9009 31.2537 65.6182 31.1675 65.347 31.0531C65.0758 30.9398 64.8229 30.8028 64.586 30.6435C64.3502 30.4842 64.1385 30.3072 63.9531 30.1112L64.4692 29.232C64.5173 29.1683 64.5768 29.1163 64.6455 29.0727C64.7141 29.029 64.7885 29.0066 64.8721 29.0066C64.9819 29.0066 65.1009 29.0538 65.2291 29.147C65.3573 29.2403 65.5095 29.3429 65.6834 29.4562C65.8574 29.5695 66.0622 29.6746 66.298 29.7678C66.5337 29.861 66.8164 29.9071 67.1471 29.9071C67.6541 29.9071 68.0466 29.782 68.3247 29.5341C68.6028 29.2863 68.7412 28.9322 68.7412 28.4684C68.7412 28.2087 68.6794 27.9975 68.5535 27.8346C68.4277 27.6706 68.2606 27.5325 68.0535 27.4204C67.8463 27.3094 67.6106 27.2162 67.3462 27.1383C67.0819 27.0604 66.8129 26.9766 66.5394 26.8857C66.2659 26.7949 65.997 26.6863 65.7326 26.5588C65.4683 26.4314 65.2325 26.2661 65.0254 26.0608C64.8183 25.8566 64.6523 25.5993 64.5276 25.2924C64.4017 24.9856 64.3376 24.6079 64.3376 24.1583C64.3376 23.7995 64.4086 23.449 64.5471 23.1079C64.6855 22.7668 64.8892 22.4647 65.1559 22.2003C65.4225 21.9371 65.7487 21.7247 66.1366 21.5665C66.5246 21.4072 66.9674 21.3281 67.4652 21.3281C68.0294 21.3281 68.5501 21.419 69.0262 21.6031C69.5022 21.7849 69.9074 22.0422 70.2427 22.3714L69.8066 23.2377V23.2401Z" fill="#00151E"/>
<path d="M78.7705 21.4277V22.9419H75.8947V31.2966H74.1152V22.9419H71.2256V21.4277H78.7705Z" fill="#00151E"/>
<path d="M87.5909 31.3021H86.2153C86.0609 31.3021 85.935 31.2608 85.8366 31.1817C85.737 31.1026 85.6649 31.0046 85.6203 30.8866L84.9062 28.8744H80.9455L80.2314 30.8866C80.1959 30.9917 80.1272 31.0861 80.0242 31.1734C79.9201 31.2596 79.7931 31.3032 79.6432 31.3032H78.2607L82.0166 21.4414H83.835L87.5909 31.3032V31.3021ZM81.4009 27.5856H84.4496L83.2857 24.3058C83.2331 24.1606 83.1759 23.9871 83.1118 23.79C83.0477 23.5917 82.9836 23.3781 82.9218 23.1468C82.86 23.3781 82.8005 23.5941 82.741 23.7947C82.6815 23.9942 82.622 24.1701 82.5648 24.3199L81.4009 27.5868V27.5856Z" fill="#00151E"/>
<path d="M89.7637 21.4414C89.8427 21.4414 89.9091 21.4438 89.9617 21.4508C90.0143 21.4579 90.0636 21.4709 90.1048 21.4922C90.1471 21.5122 90.186 21.5417 90.2261 21.5807C90.2661 21.6196 90.3096 21.6715 90.3588 21.7353L95.3781 28.3303C95.3609 28.171 95.3495 28.014 95.3426 27.8617C95.3357 27.7095 95.3311 27.5679 95.3311 27.4369V21.4426H96.8978V31.3044H95.9789C95.8381 31.3044 95.7214 31.282 95.6287 31.236C95.536 31.1911 95.4456 31.1085 95.3575 30.9905L90.3577 24.4226C90.3714 24.5678 90.3817 24.7118 90.3886 24.8546C90.3954 24.9974 90.3977 25.1296 90.3977 25.2476V31.3032H88.8311V21.4414H89.7637Z" fill="#00151E"/>
<path d="M107.49 31.3021H106.115C105.96 31.3021 105.834 31.2608 105.736 31.1817C105.636 31.1026 105.564 31.0046 105.52 30.8866L104.806 28.8744H100.845L100.131 30.8866C100.095 30.9917 100.027 31.0861 99.9237 31.1734C99.8195 31.2596 99.6925 31.3032 99.5426 31.3032H98.1602L101.916 21.4414H103.734L107.49 31.3032V31.3021ZM101.3 27.5856H104.349L103.185 24.3058C103.133 24.1606 103.075 23.9871 103.011 23.79C102.947 23.5917 102.883 23.3781 102.821 23.1468C102.759 23.3781 102.7 23.5941 102.64 23.7947C102.581 23.9942 102.521 24.1701 102.464 24.3199L101.3 27.5868V27.5856Z" fill="#00151E"/>
<path d="M112.947 31.3021H111.162V21.4414H112.947V31.3021Z" fill="#00151E"/>
<path d="M122.089 21.4277V22.9419H119.213V31.2966H117.434V22.9419H114.544V21.4277H122.089Z" fill="#00151E"/>
<path d="M58.4435 46.5213C58.7868 46.5213 59.0958 46.4622 59.367 46.3442C59.6382 46.2262 59.8671 46.0598 60.0548 45.8462C60.2424 45.6326 60.3855 45.3729 60.485 45.0708C60.5846 44.7663 60.6327 44.4252 60.6327 44.0475V38.1465H62.411V44.0523C62.411 44.6388 62.3206 45.1794 62.1375 45.6774C61.9544 46.1755 61.6901 46.6051 61.3456 46.9662C61.0023 47.3273 60.5846 47.6094 60.096 47.8124C59.6062 48.0142 59.0557 48.1169 58.4423 48.1169C57.8301 48.1169 57.2785 48.0142 56.7887 47.8124C56.2989 47.6106 55.8846 47.3285 55.5436 46.9662C55.2014 46.6051 54.9394 46.1755 54.7563 45.6774C54.5732 45.1794 54.4805 44.6388 54.4805 44.0523V38.1465H56.2588V44.0416C56.2588 44.4193 56.3092 44.7604 56.4088 45.0649C56.5083 45.367 56.6491 45.629 56.8345 45.845C57.0199 46.061 57.2487 46.2274 57.5199 46.3454C57.7912 46.4634 58.0979 46.5224 58.4412 46.5224L58.4435 46.5213Z" fill="#00151E"/>
<path d="M65.2833 38.1465C65.3622 38.1465 65.4286 38.1488 65.4812 38.1559C65.5339 38.163 65.5831 38.176 65.6243 38.1972C65.6666 38.2173 65.7055 38.2468 65.7456 38.2857C65.7856 38.3247 65.8291 38.3766 65.8783 38.4404L70.8976 45.0354C70.8804 44.876 70.869 44.7191 70.8621 44.5668C70.8553 44.4146 70.8507 44.273 70.8507 44.1419V38.1477H72.4173V48.0095H71.4984C71.3576 48.0095 71.2409 47.9871 71.1482 47.941C71.0555 47.8962 70.9651 47.8136 70.877 47.6956L65.8772 41.1277C65.8909 41.2729 65.9012 41.4168 65.9081 41.5597C65.915 41.7025 65.9172 41.8346 65.9172 41.9527V48.0083H64.3506V38.1465H65.2833Z" fill="#00151E"/>
<path d="M76.4817 48.0071H74.6953V38.1465H76.4817V48.0071Z" fill="#00151E"/>
<path d="M77.8195 38.1477H79.2546C79.4091 38.1477 79.5349 38.1866 79.6311 38.2633C79.7283 38.34 79.8004 38.4404 79.8496 38.5631L82.0983 44.5786C82.1739 44.7745 82.246 44.9882 82.3146 45.2218C82.3833 45.4555 82.4474 45.7034 82.508 45.963C82.6099 45.4402 82.7346 44.9787 82.8845 44.5786L85.1264 38.5631C85.1664 38.4581 85.2362 38.3636 85.3381 38.2763C85.4399 38.1902 85.5647 38.1465 85.7146 38.1465H87.1497L83.2874 48.0083H81.6807L77.8184 38.1465L77.8195 38.1477Z" fill="#00151E"/>
<path d="M94.3053 38.1465V39.6052H90.0665V42.3339H93.4058V43.7513H90.0665V46.5342H94.3053V48.0071H88.2744V38.1465H94.3053Z" fill="#00151E"/>
<path d="M97.8135 44.1483V48.0017H96.0352V38.1328H98.951C99.6033 38.1328 100.163 38.2036 100.629 38.3417C101.093 38.4798 101.476 38.6733 101.773 38.9236C102.071 39.1761 102.289 39.4735 102.428 39.8217C102.566 40.1722 102.635 40.5534 102.635 40.9724C102.635 41.3064 102.589 41.6203 102.494 41.9154C102.399 42.2104 102.263 42.4795 102.084 42.7203C101.906 42.9634 101.685 43.1747 101.423 43.3564C101.161 43.5382 100.861 43.6833 100.526 43.7931C100.75 43.9253 100.945 44.1141 101.108 44.3596L103.502 48.0017H101.902C101.748 48.0017 101.619 47.9699 101.51 47.9061C101.402 47.8424 101.31 47.7515 101.234 47.6335L99.2234 44.4764C99.149 44.3584 99.0666 44.2746 98.9762 44.2239C98.8858 44.1743 98.7519 44.1483 98.5745 44.1483H97.8135ZM97.8135 42.8253H98.9247C99.26 42.8253 99.553 42.7817 99.8025 42.6955C100.052 42.6093 100.257 42.489 100.417 42.3367C100.578 42.1845 100.697 42.0051 100.776 41.7962C100.855 41.5873 100.895 41.3571 100.895 41.1069C100.895 40.6065 100.736 40.223 100.417 39.9539C100.098 39.686 99.6079 39.5514 98.951 39.5514H97.8135V42.8253Z" fill="#00151E"/>
<path d="M109.89 39.9471C109.842 40.0474 109.786 40.1182 109.723 40.1584C109.658 40.1997 109.582 40.2197 109.494 40.2197C109.406 40.2197 109.306 40.1831 109.196 40.1123C109.086 40.0415 108.956 39.9648 108.806 39.8786C108.656 39.7925 108.482 39.7122 108.282 39.6426C108.082 39.5718 107.843 39.5376 107.57 39.5376C107.323 39.5376 107.109 39.5671 106.927 39.6284C106.744 39.6898 106.589 39.776 106.463 39.8857C106.337 39.9943 106.243 40.1241 106.181 40.2764C106.119 40.4286 106.088 40.5974 106.088 40.7791C106.088 41.0093 106.152 41.2017 106.278 41.3563C106.404 41.5109 106.569 41.6431 106.776 41.7516C106.983 41.8602 107.219 41.9582 107.483 42.0443C107.747 42.1305 108.019 42.2237 108.294 42.3217C108.57 42.4173 108.839 42.5306 109.103 42.6604C109.368 42.7902 109.604 42.9543 109.811 43.1514C110.018 43.3496 110.185 43.5928 110.311 43.876C110.437 44.1628 110.498 44.5098 110.498 44.9193C110.498 45.3654 110.425 45.7809 110.278 46.1692C110.13 46.5575 109.914 46.8962 109.63 47.1853C109.346 47.4745 108.997 47.7011 108.587 47.8675C108.178 48.0339 107.707 48.1153 107.179 48.1153C106.874 48.1153 106.574 48.0835 106.279 48.0221C105.984 47.9607 105.701 47.8746 105.43 47.7601C105.159 47.6468 104.906 47.5099 104.669 47.3506C104.433 47.1912 104.222 47.0142 104.036 46.8183L104.552 45.939C104.6 45.8753 104.66 45.8234 104.728 45.7797C104.797 45.736 104.872 45.7136 104.955 45.7136C105.065 45.7136 105.184 45.7608 105.312 45.854C105.44 45.9473 105.592 46.05 105.766 46.1633C105.94 46.2766 106.145 46.3816 106.381 46.4748C106.617 46.5681 106.899 46.6141 107.23 46.6141C107.737 46.6141 108.13 46.489 108.408 46.2412C108.686 45.9933 108.824 45.6392 108.824 45.1754C108.824 44.9158 108.762 44.7045 108.637 44.5417C108.511 44.3776 108.344 44.2395 108.136 44.1274C107.929 44.0165 107.694 43.9232 107.429 43.8453C107.165 43.7674 106.896 43.6836 106.622 43.5928C106.349 43.5019 106.08 43.3933 105.816 43.2658C105.551 43.1384 105.316 42.9732 105.108 42.7678C104.901 42.5636 104.735 42.3063 104.611 41.9995C104.485 41.6926 104.421 41.315 104.421 40.8653C104.421 40.5065 104.492 40.156 104.63 39.8149C104.769 39.4738 104.972 39.1717 105.239 38.9073C105.506 38.6441 105.832 38.4317 106.22 38.2736C106.608 38.1142 107.05 38.0352 107.548 38.0352C108.112 38.0352 108.633 38.126 109.109 38.3101C109.585 38.4919 109.99 38.7492 110.326 39.0785L109.89 39.9447V39.9471Z" fill="#00151E"/>
<path d="M113.992 48.0071H112.207V38.1465H113.992V48.0071Z" fill="#00151E"/>
<path d="M123.007 38.1328V39.647H120.131V48.0017H118.351V39.647H115.462V38.1328H123.007Z" fill="#00151E"/>
<path d="M128.517 44.1762V48.0095H126.739V44.1762L123.254 38.1477H124.822C124.976 38.1477 125.1 38.1866 125.19 38.2633C125.281 38.34 125.355 38.438 125.417 38.556L127.169 41.85C127.271 42.0459 127.359 42.23 127.433 42.4047C127.508 42.5794 127.576 42.7528 127.638 42.9204C127.695 42.7481 127.762 42.5723 127.834 42.3976C127.907 42.2229 127.993 42.0412 128.094 41.85L129.833 38.556C129.881 38.4557 129.954 38.3625 130.052 38.2763C130.149 38.1902 130.272 38.1465 130.422 38.1465H131.996L128.518 44.175L128.517 44.1762Z" fill="#00151E"/>
</g>
<defs>
<clipPath id="clip0_4155_1135">
<rect width="132" height="69.4737" fill="white"/>
</clipPath>
</defs>
</svg>
